<svg width="35" height="16" viewBox="0 0 35 16" fill="none" xmlns="http://www.w3.org/2000/svg">
<path d="M1.08 7.22L0.98 3.44C0.98 2.84 0.913333 2.36667 0.78 2.02C0.646667 1.67333 0.58 1.48667 0.58 1.46C0.58 1.16667 1.02667 0.939999 1.92 0.779999C2.82667 0.619999 3.51333 0.539999 3.98 0.539999C4.46 0.539999 4.72 0.653332 4.76 0.879999C5.6 4.62667 6.30667 7.22667 6.88 8.68C6.94667 8.84 7.01333 8.92 7.08 8.92C7.16 8.92 7.22667 8.86 7.28 8.74C8.17333 6.22 8.96 3.72667 9.64 1.26C9.69333 1.1 9.82667 0.979999 10.04 0.899999C10.2533 0.806666 10.62 0.719999 11.14 0.639999C11.6733 0.559999 12.2 0.519999 12.72 0.519999C13.24 0.519999 13.5 0.626666 13.5 0.84C13.5 0.853333 13.48 0.96 13.44 1.16C13.4 1.34667 13.36 1.58 13.32 1.86C13.28 2.14 13.2333 2.48 13.18 2.88C13.06 3.8 12.98 4.86 12.94 6.06C12.9133 7.24667 12.9 8.44 12.9 9.64L12.94 11.74C12.94 12.7 13 13.3867 13.12 13.8C13.2533 14.2 13.32 14.4333 13.32 14.5C13.32 14.5533 13.2733 14.62 13.18 14.7C12.7667 15.0333 12.14 15.2 11.3 15.2C10.7667 15.2 10.4667 15.02 10.4 14.66C10.36 14.4733 10.34 14.18 10.34 13.78C10.34 13.3667 10.38 12.1133 10.46 10.02C10.54 7.92667 10.58 6.40667 10.58 5.46C10.58 4.5 10.5267 4.02 10.42 4.02C10.4067 4.02 10.4 4.02667 10.4 4.04C10.4 4.04 10.38 4.04667 10.34 4.06C10.3 4.07333 10.1933 4.28 10.02 4.68C9.86 5.08 9.53333 6.06667 9.04 7.64C8.54667 9.21333 8.1 10.6867 7.7 12.06C7.3 13.42 7.08 14.1533 7.04 14.26C6.89333 14.62 6.61333 14.8 6.2 14.8C6 14.8 5.84 14.7267 5.72 14.58C5.29333 12.6067 4.53333 9.78667 3.44 6.12L2.88 4.3C2.85333 4.23333 2.82667 4.2 2.8 4.2C2.73333 4.2 2.68667 4.24667 2.66 4.34C2.60667 5.20667 2.58 6.91333 2.58 9.46C2.58 11.9933 2.67333 13.5933 2.86 14.26C2.87333 14.2867 2.88 14.3267 2.88 14.38C2.88 14.66 2.66 14.8667 2.22 15C1.78 15.12 1.38 15.18 1.02 15.18C0.673333 15.18 0.5 15.1 0.5 14.94C0.5 14.9267 0.533333 14.82 0.6 14.62C0.8 13.94 0.926667 12.9533 0.98 11.66C1.04667 10.3667 1.08 8.88667 1.08 7.22ZM19.7063 3.54C18.6529 4.86 17.8929 6.18 17.4263 7.5H17.4463C19.2996 7.5 20.3596 7.50667 20.6263 7.52C20.9063 7.52 21.0596 7.50667 21.0863 7.48C21.1129 7.45333 21.1329 7.42 21.1463 7.38C20.9196 5.74 20.7396 4.62667 20.6063 4.04C20.4729 3.44 20.3396 3.14 20.2063 3.14C20.0729 3.14 19.9063 3.27333 19.7063 3.54ZM17.9263 12.96L18.3663 12.88C18.4996 12.88 18.5663 12.9533 18.5663 13.1C18.5663 13.5667 18.4729 13.96 18.2863 14.28C18.0996 14.6 17.8663 14.8267 17.5863 14.96C17.1329 15.1867 16.7463 15.3 16.4263 15.3C15.8129 15.3 15.3529 15.0733 15.0463 14.62C14.7396 14.1533 14.5863 13.46 14.5863 12.54C14.5863 11.6067 14.8396 10.4 15.3463 8.92H14.1863C14.0396 8.92 13.9663 8.84667 13.9663 8.7C13.9663 8.55333 14.0796 8.32 14.3063 8C14.5329 7.66667 14.7729 7.5 15.0263 7.5H15.9263C16.8729 5.39333 17.9863 3.57333 19.2663 2.04C19.5996 1.64 20.0063 1.26667 20.4863 0.919999C20.9796 0.573333 21.3596 0.4 21.6263 0.4C21.8929 0.4 22.0929 0.52 22.2263 0.76C22.5729 1.32 22.9796 3.36667 23.4463 6.9C23.6063 8.42 23.8796 9.99333 24.2663 11.62C24.6663 13.2333 25.0329 14.1733 25.3663 14.44C25.4463 14.4933 25.4863 14.56 25.4863 14.64C25.4863 14.84 25.1996 15.0267 24.6263 15.2C24.0663 15.3733 23.6329 15.46 23.3263 15.46C23.0329 15.46 22.8063 15.42 22.6463 15.34C22.4863 15.2733 22.3863 15.2 22.3463 15.12C22.1063 14.6 21.8663 13.36 21.6263 11.4L21.5063 10.46C21.4529 9.83333 21.3996 9.36 21.3463 9.04L21.2063 8.94L17.0263 8.92C16.8663 9.6 16.7863 10.1933 16.7863 10.7C16.7863 11.2067 16.7996 11.58 16.8263 11.82C16.8663 12.0467 16.9796 12.2933 17.1663 12.56C17.3529 12.8267 17.6063 12.96 17.9263 12.96ZM31.5311 14.98L30.3911 14.96C30.2311 14.96 30.0711 14.96 29.9111 14.96L26.2711 15.14C26.0711 15.14 25.9711 15.0733 25.9711 14.94C25.9711 14.9 25.9911 14.8067 26.0311 14.66C26.1644 14.3533 26.2578 13.38 26.3111 11.74C26.3778 10.1 26.4111 8.60667 26.4111 7.26C26.4111 5.9 26.3844 4.8 26.3311 3.96C26.2511 2.69333 26.1178 1.93333 25.9311 1.68C25.7844 1.49333 25.7111 1.37333 25.7111 1.32C25.7111 1.10667 26.0711 0.919999 26.7911 0.76C27.5111 0.599999 28.0244 0.519999 28.3311 0.519999C28.6511 0.519999 28.8511 0.539999 28.9311 0.58C29.0111 0.606666 29.0511 0.673333 29.0511 0.779999C29.0511 0.886666 29.0244 1.22667 28.9711 1.8C28.8378 3.49333 28.7711 5.46667 28.7711 7.72C28.7711 9.96 28.8244 11.7533 28.9311 13.1C28.9311 13.2467 29.0578 13.3733 29.3111 13.48C29.5644 13.5867 29.8778 13.64 30.2511 13.64C31.5578 13.64 32.2111 12.6333 32.2111 10.62C32.2111 10.06 32.1778 9.71333 32.1111 9.58C32.0578 9.44667 32.0311 9.36 32.0311 9.32C32.0311 9.18667 32.1244 9.12 32.3111 9.12C32.4578 9.12 32.6511 9.19333 32.8911 9.34C33.1444 9.48667 33.3511 9.67333 33.5111 9.9C33.6711 10.1133 33.8178 10.46 33.9511 10.94C34.0844 11.4067 34.1511 11.96 34.1511 12.6C34.1511 14.1867 33.9578 14.98 33.5711 14.98C32.8911 14.98 32.2111 14.98 31.5311 14.98Z" fill="white"/>
</svg>
